{
	"asset":{
		"generator":"Khronos glTF Blender I/O v4.3.47",
		"version":"2.0"
	},
	"scene":0,
	"scenes":[
		{
			"name":"Scene",
			"nodes":[
				0
			]
		}
	],
	"nodes":[
		{
			"mesh":0,
			"name":"Fireplace_middle"
		}
	],
	"materials":[
		{
			"doubleSided":true,
			"name":"Fireplace.001",
			"normalTexture":{
				"index":0
			},
			"occlusionTexture":{
				"index":1
			},
			"pbrMetallicRoughness":{
				"baseColorTexture":{
					"index":2
				},
				"metallicFactor":0,
				"metallicRoughnessTexture":{
					"index":1
				}
			}
		}
	],
	"meshes":[
		{
			"name":"SM_Fireplace_middle_Fireplace_0.001",
			"primitives":[
				{
					"attributes":{
						"POSITION":0,
						"NORMAL":1,
						"TEXCOORD_0":2
					},
					"indices":3,
					"material":0
				}
			]
		}
	],
	"textures":[
		{
			"sampler":0,
			"source":0
		},
		{
			"sampler":0,
			"source":1
		},
		{
			"sampler":0,
			"source":2
		}
	],
	"images":[
		{
			"mimeType":"image/png",
			"name":"Fireplace_normal",
			"uri":"Textures/Fireplace_normal.png"
		},
		{
			"mimeType":"image/png",
			"name":"Fireplace_metallicRoughness",
			"uri":"Textures/Fireplace_metallicRoughness.png"
		},
		{
			"mimeType":"image/png",
			"name":"Fireplace_baseColor",
			"uri":"Textures/Fireplace_baseColor.png"
		}
	],
	"accessors":[
		{
			"bufferView":0,
			"componentType":5126,
			"count":363,
			"max":[
				0.48225027322769165,
				1.9872121810913086,
				0.49035221338272095
			],
			"min":[
				-0.4961559772491455,
				-0.008654738776385784,
				-0.4905097186565399
			],
			"type":"VEC3"
		},
		{
			"bufferView":1,
			"componentType":5126,
			"count":363,
			"type":"VEC3"
		},
		{
			"bufferView":2,
			"componentType":5126,
			"count":363,
			"type":"VEC2"
		},
		{
			"bufferView":3,
			"componentType":5123,
			"count":1479,
			"type":"SCALAR"
		}
	],
	"bufferViews":[
		{
			"buffer":0,
			"byteLength":4356,
			"byteOffset":0,
			"target":34962
		},
		{
			"buffer":0,
			"byteLength":4356,
			"byteOffset":4356,
			"target":34962
		},
		{
			"buffer":0,
			"byteLength":2904,
			"byteOffset":8712,
			"target":34962
		},
		{
			"buffer":0,
			"byteLength":2958,
			"byteOffset":11616,
			"target":34963
		}
	],
	"samplers":[
		{
			"magFilter":9729,
			"minFilter":9987
		}
	],
	"buffers":[
		{
			"byteLength":14576,
			"uri":"Fireplace_middle.bin"
		}
	]
}
