{
	"asset":{
		"generator":"Khronos glTF Blender I/O v4.3.47",
		"version":"2.0"
	},
	"scene":0,
	"scenes":[
		{
			"name":"Scene",
			"nodes":[
				0
			]
		}
	],
	"nodes":[
		{
			"mesh":0,
			"name":"Fireplace_fireplace"
		}
	],
	"materials":[
		{
			"doubleSided":true,
			"name":"Fireplace.001",
			"normalTexture":{
				"index":0
			},
			"occlusionTexture":{
				"index":1
			},
			"pbrMetallicRoughness":{
				"baseColorTexture":{
					"index":2
				},
				"metallicFactor":0,
				"metallicRoughnessTexture":{
					"index":1
				}
			}
		}
	],
	"meshes":[
		{
			"name":"SM_Fireplace_fireplace_Fireplace_0.001",
			"primitives":[
				{
					"attributes":{
						"POSITION":0,
						"NORMAL":1,
						"TEXCOORD_0":2
					},
					"indices":3,
					"material":0
				}
			]
		}
	],
	"textures":[
		{
			"sampler":0,
			"source":0
		},
		{
			"sampler":0,
			"source":1
		},
		{
			"sampler":0,
			"source":2
		}
	],
	"images":[
		{
			"mimeType":"image/png",
			"name":"Fireplace_normal",
			"uri":"Textures/Fireplace_normal.png"
		},
		{
			"mimeType":"image/png",
			"name":"Fireplace_metallicRoughness",
			"uri":"Textures/Fireplace_metallicRoughness.png"
		},
		{
			"mimeType":"image/png",
			"name":"Fireplace_baseColor",
			"uri":"Textures/Fireplace_baseColor.png"
		}
	],
	"accessors":[
		{
			"bufferView":0,
			"componentType":5126,
			"count":1031,
			"max":[
				0.9493585228919983,
				2.1912124156951904,
				0.787319004535675
			],
			"min":[
				-0.9182681441307068,
				-0.004908783361315727,
				-0.5656344294548035
			],
			"type":"VEC3"
		},
		{
			"bufferView":1,
			"componentType":5126,
			"count":1031,
			"type":"VEC3"
		},
		{
			"bufferView":2,
			"componentType":5126,
			"count":1031,
			"type":"VEC2"
		},
		{
			"bufferView":3,
			"componentType":5123,
			"count":2862,
			"type":"SCALAR"
		}
	],
	"bufferViews":[
		{
			"buffer":0,
			"byteLength":12372,
			"byteOffset":0,
			"target":34962
		},
		{
			"buffer":0,
			"byteLength":12372,
			"byteOffset":12372,
			"target":34962
		},
		{
			"buffer":0,
			"byteLength":8248,
			"byteOffset":24744,
			"target":34962
		},
		{
			"buffer":0,
			"byteLength":5724,
			"byteOffset":32992,
			"target":34963
		}
	],
	"samplers":[
		{
			"magFilter":9729,
			"minFilter":9987
		}
	],
	"buffers":[
		{
			"byteLength":38716,
			"uri":"Fireplace_fireplace.bin"
		}
	]
}
