{
	"asset":{
		"generator":"Khronos glTF Blender I/O v4.3.47",
		"version":"2.0"
	},
	"scene":0,
	"scenes":[
		{
			"name":"Scene",
			"nodes":[
				0
			]
		}
	],
	"nodes":[
		{
			"mesh":0,
			"name":"Fireplace_chimney"
		}
	],
	"materials":[
		{
			"doubleSided":true,
			"name":"Fireplace.001",
			"normalTexture":{
				"index":0
			},
			"occlusionTexture":{
				"index":1
			},
			"pbrMetallicRoughness":{
				"baseColorTexture":{
					"index":2
				},
				"metallicFactor":0,
				"metallicRoughnessTexture":{
					"index":1
				}
			}
		}
	],
	"meshes":[
		{
			"name":"SM_Fireplace_chimney.001_Fireplace_0.001",
			"primitives":[
				{
					"attributes":{
						"POSITION":0,
						"NORMAL":1,
						"TEXCOORD_0":2
					},
					"indices":3,
					"material":0
				}
			]
		}
	],
	"textures":[
		{
			"sampler":0,
			"source":0
		},
		{
			"sampler":0,
			"source":1
		},
		{
			"sampler":0,
			"source":2
		}
	],
	"images":[
		{
			"mimeType":"image/png",
			"name":"Fireplace_normal",
			"uri":"Textures/Fireplace_normal.png"
		},
		{
			"mimeType":"image/png",
			"name":"Fireplace_metallicRoughness",
			"uri":"Textures/Fireplace_metallicRoughness.png"
		},
		{
			"mimeType":"image/png",
			"name":"Fireplace_baseColor",
			"uri":"Textures/Fireplace_baseColor.png"
		}
	],
	"accessors":[
		{
			"bufferView":0,
			"componentType":5126,
			"count":1262,
			"max":[
				0.6858535408973694,
				3.20725679397583,
				0.6259862780570984
			],
			"min":[
				-0.7572252154350281,
				-0.04710891470313072,
				-0.6664767861366272
			],
			"type":"VEC3"
		},
		{
			"bufferView":1,
			"componentType":5126,
			"count":1262,
			"type":"VEC3"
		},
		{
			"bufferView":2,
			"componentType":5126,
			"count":1262,
			"type":"VEC2"
		},
		{
			"bufferView":3,
			"componentType":5123,
			"count":3897,
			"type":"SCALAR"
		}
	],
	"bufferViews":[
		{
			"buffer":0,
			"byteLength":15144,
			"byteOffset":0,
			"target":34962
		},
		{
			"buffer":0,
			"byteLength":15144,
			"byteOffset":15144,
			"target":34962
		},
		{
			"buffer":0,
			"byteLength":10096,
			"byteOffset":30288,
			"target":34962
		},
		{
			"buffer":0,
			"byteLength":7794,
			"byteOffset":40384,
			"target":34963
		}
	],
	"samplers":[
		{
			"magFilter":9729,
			"minFilter":9987
		}
	],
	"buffers":[
		{
			"byteLength":48180,
			"uri":"Fireplace_chimney.bin"
		}
	]
}
